<svg width="147" height="56" viewBox="0 0 147 56" fill="none" xmlns="http://www.w3.org/2000/svg">
<path d="M7.16462 31.4516H5.89221L0 18.7357H1.69915L6.55387 29.5636L11.3499 18.7357H12.9629L7.16462 31.4516Z" fill="#50225A"/>
<path d="M15.7936 17.3207H14.3411V15.632H15.7936V17.3207Z" fill="#50225A"/>
<path d="M15.7936 31.4516H14.3411V18.7357H15.7936V31.4516Z" fill="#50225A"/>
<path d="M39.7616 17.2972H38.3091V15.6085H39.7616V17.2972Z" fill="#50225A"/>
<path d="M39.7616 31.4282H38.3091V18.7123H39.7616V31.4282Z" fill="#50225A"/>
<path d="M76.3131 31.4282H74.8606V15.6085H76.3131V31.4282Z" fill="#50225A"/>
<path d="M110.026 17.2972H108.577V15.6085H110.026V17.2972Z" fill="#50225A"/>
<path d="M110.026 31.4282H108.577V18.7123H110.026V31.4282Z" fill="#50225A"/>
<path d="M70.9063 31.4282H69.4578V15.6085H70.9063V18.7123H73.4003V20.0648H70.9063V31.4282Z" fill="#50225A"/>
<path d="M104.619 31.4282H103.175V15.6085H104.619V18.7123H107.109V20.0726H104.619V31.4282Z" fill="#50225A"/>
<path d="M66.4939 19.8928C65.6247 19.0289 64.3171 18.5911 62.6023 18.5911C61.1223 18.5911 59.525 18.982 58.1077 19.713L57.9981 19.7638L58.5345 20.9678L58.6558 20.9052C59.9909 20.2602 61.1889 19.9553 62.4417 19.9553C65.0335 19.9553 66.3451 21.1319 66.3451 23.446V23.4851H62.7902C59.0199 23.4851 57.1055 24.8845 57.1055 27.6443V27.6912C57.1055 30.318 59.4976 31.6979 61.8584 31.6979C64.2936 31.6979 65.7696 30.4509 66.349 29.7434V31.4321H67.7584V23.4304C67.7506 21.8981 67.3356 20.7371 66.4939 19.8928ZM66.3647 26.3387C66.3647 29.1258 64.1526 30.3727 61.9602 30.3727C60.0065 30.3727 58.5854 29.2118 58.5854 27.6208C58.5854 25.6233 59.846 24.8064 62.935 24.8064H66.3686V26.3387H66.3647Z" fill="#50225A"/>
<path d="M87.4748 19.8928C86.6057 19.0289 85.2981 18.5911 83.5832 18.5911C82.1073 18.5911 80.506 18.982 79.0848 19.713L78.9791 19.7638L79.5115 20.9678L79.6368 20.9052C80.968 20.2602 82.166 19.9553 83.4188 19.9553C86.0106 19.9553 87.3261 21.1319 87.3261 23.446V23.4851H83.7633C79.9931 23.4851 78.0786 24.8845 78.0786 27.6443V27.6912C78.0786 30.318 80.4668 31.6979 82.8276 31.6979C85.2746 31.6979 86.7506 30.4509 87.3261 29.7434V31.4321H88.7277V23.4304C88.7277 21.8981 88.3205 20.7371 87.4748 19.8928ZM87.3456 26.3387C87.3456 29.1258 85.1336 30.3727 82.9412 30.3727C80.9875 30.3727 79.5664 29.2118 79.5664 27.6208C79.5664 25.6233 80.8309 24.8064 83.916 24.8064H87.3456V26.3387V26.3387Z" fill="#50225A"/>
<path d="M52.4386 31.4282H50.9861V24.7125C50.9861 23.2584 50.9861 19.8537 47.2512 19.8537C44.5889 19.8537 43.0033 21.8707 43.0033 25.2363V31.4282H41.5547V18.7123H43.0033V20.8309C43.5161 20.0452 44.8434 18.4973 47.4234 18.4973C50.6612 18.4973 52.4426 20.4557 52.4426 24.0128V31.4282H52.4386Z" fill="#50225A"/>
<path d="M101.44 31.4282H99.9837V24.7125C99.9837 23.2584 99.9837 19.8537 96.2448 19.8537C93.5903 19.8537 92.0047 21.8707 92.0047 25.2363V31.4282H90.5562V18.7123H92.0047V20.8309C92.5176 20.0452 93.8448 18.4973 96.417 18.4973C99.6548 18.4973 101.44 20.4557 101.44 24.0128V31.4282Z" fill="#50225A"/>
<path d="M35.0948 18.7357V20.9013C34.2726 19.6543 32.4482 18.5207 30.197 18.5207C28.7053 18.5207 27.2137 19.1149 26.1136 20.1625C24.9195 21.2805 24.2617 22.8323 24.2617 24.5249V24.5796C24.2617 26.2566 24.9155 27.8085 26.1136 28.9186C27.2137 29.9428 28.7053 30.533 30.197 30.533C32.4247 30.533 34.253 29.3408 35.0948 28.0352V28.6802C35.0948 31.8972 33.4661 33.6641 30.5063 33.6641C28.4039 33.6641 26.9553 32.8393 25.6907 31.952L25.5889 31.8777L24.7629 33.0426L24.8568 33.1208C25.0839 33.3162 27.1863 35.0401 30.4828 35.0401C32.3072 35.0401 33.8968 34.442 34.9578 33.3553C36.0422 32.253 36.516 30.7988 36.516 28.6567V18.7357H35.0948ZM35.083 24.5523C35.083 27.3863 32.6126 29.1375 30.3223 29.1375C27.7736 29.1375 25.7808 27.1088 25.7808 24.5249V24.4819C25.7808 21.8395 27.6913 19.928 30.3145 19.928C32.6635 19.928 35.083 21.6401 35.083 24.5054V24.5523V24.5523Z" fill="#50225A"/>
<path d="M118.056 31.5767C114.481 31.5767 111.674 28.7114 111.674 25.0565V25.0096C111.674 21.3235 114.481 18.4386 118.056 18.4386C120.98 18.4386 122.648 20.143 123.094 20.6707L123.169 20.7606L122.253 21.7495L122.163 21.6479C120.898 20.4088 119.547 19.8029 118.036 19.8029C115.335 19.8029 113.217 22.0662 113.217 24.9588V25.0057C113.217 27.9218 115.374 30.2008 118.134 30.2008C120.178 30.2008 121.536 29.0241 122.174 28.3244L122.26 28.2228L123.216 29.0906L123.149 29.1805C122.578 30.0131 120.784 31.5767 118.056 31.5767Z" fill="#50225A"/>
<path d="M19.047 31.4516H17.5945V18.7357H19.047V21.7652C20.1784 19.7091 22.1556 18.5285 24.4185 18.6224L24.5477 18.6263V20.1351H24.2932C21.6858 20.1351 19.047 22.0036 19.047 26.1941V31.4516Z" fill="#50225A"/>
<path d="M147 0H134.55C130.698 0 129.754 0.629345 128.215 2.31411L117.081 14.5101C125.972 14.084 128.716 23.0239 137.753 20.5729L147 0Z" fill="#DA0C31"/>
<path d="M130.69 4.78459C130.69 4.78459 131.246 3.76434 131.68 3.42817C131.68 3.42817 132.158 3.13891 132.17 2.66201C132.17 2.66201 132.205 2.34929 131.95 2.14603C131.95 2.14603 131.277 1.59877 130.729 2.53302C130.729 2.53302 128.149 7.40751 127.256 12.325C127.256 12.325 127.19 12.4814 127.17 12.0357C127.17 12.0357 126.79 7.90786 126.775 7.75932C126.763 7.61078 126.771 7.23552 126.426 7.20815C126.426 7.20815 126.019 7.13388 125.78 7.74759L124.637 10.566C124.637 10.566 124.445 10.9178 124.754 11.0507C124.754 11.0507 125.095 11.2461 125.318 10.7653L125.847 9.63563C125.948 9.405 126.031 9.43627 126.031 9.43627C126.093 9.448 126.117 9.68254 126.117 9.68254C126.117 9.68254 126.583 15.2176 126.587 15.2606C126.591 15.3036 126.634 15.7493 127.006 15.7493C127.276 15.7454 127.362 15.4444 127.417 15.1942C127.471 14.944 127.973 12.3055 128.814 9.46363C129.359 7.61078 130.067 5.7501 130.69 4.78459ZM129.926 9.61217C129.394 9.72944 129.327 10.3353 129.327 10.3353L129.002 12.7472C128.947 13.228 129.57 12.8801 129.57 12.8801C129.828 12.7276 129.871 12.411 129.871 12.411L129.969 11.8051L130.271 10.1712C130.369 9.49881 129.926 9.61217 129.926 9.61217ZM130.991 9.82717C130.991 9.82717 130.815 11.0859 130.788 11.3634C130.788 11.3634 130.553 12.4227 131.124 12.2312C131.124 12.2312 131.586 12.1061 131.657 11.4572L131.747 10.5542C131.747 10.5542 131.774 9.88189 132.311 9.58872C132.311 9.58872 132.882 9.33073 132.71 8.97892C132.71 8.97892 132.6 8.69747 132.26 8.84992C132.001 8.96328 131.86 8.97892 131.86 8.97892C131.86 8.97892 131.52 9.01801 131.465 9.02583C131.473 9.02583 131.05 9.04537 130.991 9.82717ZM130.549 8.38866C130.901 8.10722 130.795 7.87268 130.795 7.87268C130.666 7.49742 130.189 7.89613 130.189 7.89613C129.785 8.18149 129.926 8.46293 129.926 8.46293C130.102 8.76784 130.549 8.38866 130.549 8.38866ZM136.382 10.1438C136.382 10.1438 136.836 10.0461 136.915 9.53009C136.915 9.53009 137.185 7.60687 137.197 7.54042C137.208 7.47396 137.326 6.96971 136.969 7.04789C136.969 7.04789 136.531 7.12997 136.457 7.56387L136.116 9.45972L136.053 9.8428C136.053 9.8428 135.967 10.2532 136.382 10.1438ZM137.471 6.11364C137.471 6.11364 137.85 5.79701 137.678 5.56638C137.678 5.56638 137.518 5.32794 137.067 5.64847C137.067 5.64847 136.664 5.98074 136.911 6.21136C136.907 6.21136 137.146 6.43027 137.471 6.11364ZM142.239 8.46293C142.149 8.30658 141.918 8.20103 141.507 8.38085C141.069 8.57239 140.885 8.65447 140.873 8.66229C140.861 8.6662 140.336 8.93592 140.391 8.2284L140.556 6.55535C140.556 6.55535 140.622 5.94946 140.145 5.94946C140.145 5.94946 139.89 5.9221 139.483 6.27782C139.483 6.27782 139.283 6.46545 139.131 6.50454C139.041 6.52799 138.939 6.53581 138.79 6.48499C138.641 6.43418 138.508 6.45763 138.402 6.4889C138.402 6.4889 137.944 6.61008 137.913 7.23161L137.729 8.71702C137.729 8.71702 137.631 9.29555 137.682 9.405C137.682 9.405 137.729 9.63563 138.152 9.49491C138.152 9.49491 138.508 9.38936 138.547 8.77956C138.547 8.77956 138.649 7.59123 138.817 7.3606C138.817 7.3606 139.017 6.98143 139.307 6.82117C139.307 6.82117 139.718 6.62572 139.714 6.95798L139.565 8.32221C139.565 8.32221 139.42 8.99065 139.722 9.09619C139.722 9.09619 139.757 9.11183 139.679 9.15091C139.679 9.15091 137.713 9.98353 135.184 11.3947C135.356 9.96398 135.654 7.9704 135.654 7.9704C135.697 7.64596 135.302 7.64596 135.302 7.64596C134.914 7.63423 134.859 8.08767 134.828 8.28703C134.797 8.48639 134.503 10.1008 134.503 10.1008C134.37 10.8318 133.931 10.7966 133.931 10.7966C133.501 10.8474 133.759 9.68645 133.759 9.68645C133.873 9.26818 133.916 8.92029 134.241 8.63884C134.562 8.36912 134.593 8.0134 134.35 8.00558C133.947 7.98604 133.532 8.41994 133.532 8.41994C132.812 9.12746 132.816 10.8435 132.816 10.8435C132.8 11.3868 133.168 11.5471 133.168 11.5471C133.626 11.7543 134.252 11.3908 134.252 11.3908C134.397 11.2891 134.378 11.4298 134.378 11.4298L134.346 11.8637C132.491 12.9348 130.427 14.2717 128.646 15.7766C128.646 15.7766 127.832 16.3747 128.133 16.7734C128.458 17.1917 128.908 16.8125 129.092 16.6405C129.092 16.6405 130.917 14.7759 134.284 12.6846L134.178 14.088C134.131 14.7212 133.927 16.6796 133.927 16.6796C133.833 17.4497 133.955 17.6021 133.998 17.6568C134.068 17.7428 134.37 18.0008 134.707 17.7819C135.122 17.5161 134.914 16.8751 134.847 16.5741C134.777 16.2692 134.785 15.7727 134.785 15.7727C134.816 15.3701 135.051 12.6416 135.051 12.6416C135.055 12.5361 135.067 12.3836 135.086 12.1999C136.374 11.4416 137.858 10.6715 139.514 9.96789C139.514 9.96789 140.231 9.68645 140.842 9.49491C140.842 9.49491 141.041 9.41282 141.3 9.33855C141.644 9.24082 142.09 9.08446 142.22 8.89683C142.306 8.78347 142.333 8.62711 142.239 8.46293Z" fill="white"/>
<path d="M60.2142 52.7165C56.6084 52.7165 53.7817 49.8551 53.7817 46.2002V46.1533C53.7817 42.471 56.628 39.5862 60.2612 39.5862C63.867 39.5862 66.6937 42.4476 66.6937 46.1025V46.1494C66.6976 49.8316 63.8474 52.7165 60.2142 52.7165ZM60.2142 40.9817C57.4854 40.9817 55.3517 43.2294 55.3517 46.1025V46.1494C55.3517 49.0498 57.5089 51.321 60.2651 51.321C62.9939 51.321 65.1316 49.0694 65.1316 46.1963V46.1494C65.1277 43.2489 62.9705 40.9817 60.2142 40.9817Z" fill="#50225A"/>
<path d="M73.0558 38.3353H71.6072V36.6467H73.0558V38.3353Z" fill="#50225A"/>
<path d="M73.0558 52.4663H71.6072V39.7504H73.0558V52.4663Z" fill="#50225A"/>
<path d="M69.8102 52.4702H68.3577V36.6506H69.8102V52.4702Z" fill="#50225A"/>
<path d="M86.191 36.6349V41.9199C85.0164 40.4735 83.2312 39.5667 81.1992 39.5667C77.5582 39.5667 74.7041 42.4593 74.7041 46.1494V46.1963C74.7041 49.859 77.5347 52.7282 81.1523 52.7282C83.2077 52.7282 85.0125 51.8057 86.1949 50.3437V52.4546H87.6474V46.1494V46.1025V36.6349H86.191ZM86.1714 46.2002C86.1714 49.1358 83.9868 51.4343 81.1992 51.4343C78.3843 51.4343 76.1762 49.1163 76.1762 46.1533V46.1064C76.1762 43.1707 78.3608 40.8762 81.1483 40.8762C83.9633 40.8762 86.1714 43.1942 86.1714 46.1572V46.2002Z" fill="#50225A"/>
<path d="M119.027 45.309C116.999 44.7422 115.562 44.2418 115.562 42.9753V42.9284C115.562 41.701 116.807 40.841 118.588 40.841C119.829 40.841 121.172 41.2866 122.272 42.0606L122.523 42.2365L122.691 41.9824L123.126 41.3335L123.29 41.0873L123.044 40.9231C121.752 40.0475 120.092 39.5237 118.608 39.5237C116.036 39.5237 114.164 40.9856 114.164 42.9987V43.0457C114.164 45.3559 116.419 46.0008 118.596 46.6263C120.632 47.1813 122.069 47.6817 122.069 49.085V49.128C122.069 50.4219 120.734 51.3561 118.897 51.3561C117.406 51.3561 115.863 50.7893 114.552 49.7613L113.718 50.8245C115.084 51.9659 117.053 52.6735 118.85 52.6735C121.521 52.6735 123.462 51.1529 123.462 49.0537V49.0068C123.466 46.7045 121.368 45.9422 119.027 45.309Z" fill="#50225A"/>
<path d="M52.1217 52.4741H50.6653V45.7585C50.6653 44.3043 50.6653 40.8996 46.9264 40.8996C44.272 40.8996 42.6864 42.9167 42.6864 46.2823V52.4741H41.2378V36.6545H42.6864V41.8769C43.1993 41.0912 44.5265 39.5432 47.0987 39.5432C50.3365 39.5432 52.1217 41.5016 52.1217 45.0588V52.4741Z" fill="#50225A"/>
<path d="M98.6841 40.927C97.8149 40.0631 96.5073 39.6253 94.7925 39.6253C93.3165 39.6253 91.7152 40.0162 90.294 40.7472L90.1883 40.798L90.7208 42.002L90.846 41.9394C92.1772 41.2944 93.3752 40.9895 94.628 40.9895C97.2198 40.9895 98.5353 42.1661 98.5353 44.4802V44.5193H94.9726C91.2023 44.5193 89.2878 45.9187 89.2878 48.6785V48.7254C89.2878 51.3522 91.676 52.7321 94.0368 52.7321C96.4838 52.7321 97.9598 51.4851 98.5353 50.7776V52.4663H99.9369V44.4646C99.9369 42.9284 99.5297 41.7713 98.6841 40.927ZM98.5549 47.3729C98.5549 50.16 96.3428 51.4069 94.1504 51.4069C92.1968 51.4069 90.7756 50.246 90.7756 48.655C90.7756 46.6575 92.0402 45.8406 95.1252 45.8406H98.5549V47.3729V47.3729Z" fill="#50225A"/>
<path d="M112.187 39.7504L107.344 50.5274L107.274 50.6799L107.203 50.5274L102.067 39.7504H100.461L100.516 39.8637L106.491 52.2708L106.506 52.306L106.491 52.3412C105.508 54.3973 104.944 54.624 103.981 54.6279C103.335 54.6279 102.634 54.4051 102.004 54.0025L101.742 53.8344L101.585 54.1002L101.19 54.7804L101.053 55.0188L101.28 55.1752C102 55.6756 103.061 55.9961 103.977 55.9961H103.993C105.97 55.9883 106.773 55.0071 107.822 52.8064L113.675 39.8559L113.722 39.7504H112.187V39.7504Z" fill="#50225A"/>
</svg>
